<?xml version="1.0" encoding="UTF-8"?>
<svg version="1.1" xmlns="http://www.w3.org/2000/svg" width="1200" height="1200">
<path d="M0 0 C396 0 792 0 1200 0 C1200 396 1200 792 1200 1200 C804 1200 408 1200 0 1200 C0 804 0 408 0 0 Z " fill="#FEFEFE" transform="translate(0,0)"/>
<path d="M0 0 C0.11162381 91.05637269 0.08048882 182.11249607 -0.38955754 361.57248342 C-0.42395816 373.32537278 -0.45719416 385.07826486 -0.48968738 396.83115964 C-0.56853315 425.28629476 -0.64738096 453.74142263 -0.76158142 482.19644165 C-0.76490751 483.02565522 -0.7682336 483.8548688 -0.77166048 484.70921005 C-0.80512864 493.0245482 -0.8394668 501.33988237 -0.87486323 509.65521253 C-0.95355634 528.20820249 -1.01460099 546.76107392 -1.04680368 565.31420598 C-1.07165383 579.55242245 -1.11336951 593.79050371 -1.17190439 608.02862233 C-1.2065949 616.62162345 -1.2270007 625.21439803 -1.22773074 633.80747034 C-1.22957229 639.57700089 -1.24944224 645.34628908 -1.28379662 651.1157171 C-1.30293057 654.42041515 -1.3113184 657.72452149 -1.30327916 661.02928042 C-1.29579071 664.6033826 -1.31881128 668.17603617 -1.34950256 671.74998474 C-1.33999445 672.78254601 -1.33048633 673.81510728 -1.3206901 674.87895828 C-1.4379671 682.65825301 -3.73481418 687.24834803 -8.78125 693.04663086 C-14.14852716 697.67057063 -20.00786107 701.14130965 -26.19641113 704.5647583 C-28.04953181 705.58990089 -29.89604731 706.62613732 -31.74121094 707.66552734 C-33.64597677 708.73848482 -35.551009 709.81091141 -37.45794678 710.88000488 C-43.42787358 714.22815665 -49.34449673 717.66455988 -55.25 721.125 C-56.22324219 721.69420166 -57.19648437 722.26340332 -58.19921875 722.84985352 C-60.15454921 723.99354656 -62.10962889 725.13766848 -64.06445312 726.28222656 C-69.03978559 729.19360707 -74.02017442 732.09631397 -79 735 C-81.00002361 736.1666262 -83.00002362 737.33329284 -85 738.5 C-89 740.83333333 -93 743.16666667 -97 745.5 C-97.98983887 746.07741943 -98.97967773 746.65483887 -99.99951172 747.24975586 C-102.00109211 748.41731728 -104.00271977 749.58479764 -106.00439453 750.75219727 C-110.98060392 753.65451416 -115.95600455 756.55819916 -120.9296875 759.46484375 C-132.36219469 766.14383479 -143.81535395 772.78547374 -155.28857422 779.39428711 C-162.53921986 783.57327594 -169.77472586 787.7773134 -177 792 C-185.31751792 796.8610296 -193.65205653 801.69141103 -202 806.5 C-214.36022518 813.62086408 -226.68467327 820.80183378 -239 828 C-254.65153632 837.14814218 -270.33291096 846.24242833 -286.04052734 855.29394531 C-303.38103977 865.29027437 -320.6682664 875.37771194 -337.94921875 885.4765625 C-349.5862162 892.27447895 -361.24183684 899.03892015 -372.92138672 905.76342773 C-373.93217285 906.34552002 -374.94295898 906.9276123 -375.984375 907.52734375 C-376.96857422 908.09308105 -377.95277344 908.65881836 -378.96679688 909.24169922 C-381.10529353 910.48135254 -383.23613976 911.73424978 -385.36132812 912.99658203 C-386.44349609 913.63837402 -387.52566406 914.28016602 -388.640625 914.94140625 C-389.62063477 915.52736572 -390.60064453 916.1133252 -391.61035156 916.71704102 C-394 918 -394 918 -396 918 C-396.06823021 869.64031635 -395.97226296 821.28128651 -395.81640625 772.921875 C-395.81402876 772.18345173 -395.81165128 771.44502845 -395.80920175 770.68422872 C-395.74842869 751.82859751 -395.68529978 732.97297437 -395.62127277 714.11735396 C-395.57878356 701.60450342 -395.5369257 689.09165094 -395.49563599 676.57879639 C-395.49286329 675.73862402 -395.4900906 674.89845166 -395.48723388 674.03281952 C-395.47314605 669.76310885 -395.45906796 665.49339813 -395.44499362 661.22368741 C-395.34621957 631.26403024 -395.24623906 601.30437721 -395.14550781 571.34472656 C-395.04787248 542.3050151 -394.95080931 513.26530181 -394.85449219 484.22558594 C-394.85150408 483.32473392 -394.84851596 482.42388191 -394.8454373 481.49573135 C-394.81542019 472.44602702 -394.78541441 463.39632264 -394.7554169 454.34661824 C-394.69435065 435.92411246 -394.633209 417.50160694 -394.57202148 399.07910156 C-394.56921051 398.23273652 -394.56639953 397.38637147 -394.56350337 396.514359 C-394.3769361 340.34290177 -394.18860757 284.17145041 -394 228 C-393.34679276 227.63172089 -392.69358551 227.26344177 -392.02058411 226.88400269 C-389.01982256 225.19162448 -386.01967342 223.49816344 -383.01953125 221.8046875 C-381.99218872 221.22549561 -380.96484619 220.64630371 -379.90637207 220.04956055 C-374.1363754 216.79150704 -368.38819449 213.50291045 -362.6875 210.125 C-361.98995605 209.71187057 -361.29241211 209.29874115 -360.57373047 208.87309265 C-359.93709473 208.49602676 -359.30045898 208.11896088 -358.64453125 207.73046875 C-352.74968594 204.25057014 -346.80890433 200.85018948 -340.875 197.4375 C-333.98522273 193.47389431 -327.10443988 189.50435131 -320.3125 185.375 C-314.26199558 181.69915124 -308.10933686 178.21764475 -301.9375 174.75 C-293.3890978 169.94633233 -284.91776104 165.03080921 -276.48876953 160.02099609 C-269.29472234 155.75060968 -262.06216143 151.55021425 -254.8125 147.375 C-253.1581897 146.42222168 -253.1581897 146.42222168 -251.47045898 145.45019531 C-249.3139491 144.20872897 -247.15729624 142.96751092 -245.00048828 141.7265625 C-233.01984657 134.83257567 -221.07896289 127.87758803 -209.18603516 120.83325195 C-202.58093304 116.92445225 -195.95200125 113.05945969 -189.30444336 109.22338867 C-184.04271587 106.1861667 -178.79358708 103.12815439 -173.54980469 100.06005859 C-163.69159828 94.29305619 -153.79958038 88.58922954 -143.875 82.9375 C-134.6081083 77.65990119 -125.3896671 72.3086557 -116.22167969 66.86083984 C-108.12518511 62.05585557 -99.97216553 57.35185266 -91.81201172 52.65600586 C-83.53378334 47.89055017 -75.27900511 43.08626111 -67.03295898 38.26538086 C-60.84677333 34.65191916 -54.64637413 31.06427495 -48.43579102 27.49291992 C-37.93865477 21.45657348 -27.47942016 15.36097065 -17.0625 9.1875 C-16.47342865 8.8386676 -15.8843573 8.48983521 -15.2774353 8.13043213 C-1.55500883 0 -1.55500883 0 0 0 Z " fill="#010101" transform="translate(958,202)"/>
<path d="M0 0 C0.66 0 1.32 0 2 0 C3.6145092 1.96862088 5.12674229 3.94583275 6.625 6 C26.83770224 32.85727938 58.74290055 47.84817636 90 58 C90.7002832 58.23315918 91.40056641 58.46631836 92.12207031 58.70654297 C110.70872753 64.84943769 130.50084347 68.42745456 150 70 C151.04615479 70.08612549 152.09230957 70.17225098 153.17016602 70.26098633 C163.30851703 71.02087208 173.39955948 71.20231663 183.5625 71.1875 C184.39793335 71.18656342 185.2333667 71.18562683 186.09411621 71.18466187 C225.47912809 71.0892497 263.31034991 63.55455953 299.55004883 47.92041016 C302.02714928 46.98980042 304.40492561 46.48926867 307 46 C307.05544898 154.37080592 307.00566924 262.74103117 306.61941843 438.09357321 C306.57453065 457.32009469 306.53405206 476.54662289 306.49534739 495.77315772 C306.45453854 516.0192416 306.41045997 536.26531622 306.36312145 556.51138592 C306.33706558 567.68158858 306.31219447 578.85179028 306.29092598 590.02200317 C306.19735476 638.68915704 305.95039195 687.34113087 305 736 C302.43702351 737.29048217 299.87309883 738.57901699 297.30859375 739.86645508 C296.5868396 740.23011421 295.86508545 740.59377335 295.12145996 740.96845245 C290.16608109 743.45365272 285.19767062 745.74988814 280 747.6875 C279.24477051 747.97165771 278.48954102 748.25581543 277.71142578 748.54858398 C275.47869983 749.37842394 273.24005657 750.19020463 271 751 C269.82179688 751.44085937 268.64359375 751.88171875 267.4296875 752.3359375 C225.92320798 766.65795351 177.98018526 768.31801234 135 762 C134.04335449 761.86078125 133.08670898 761.7215625 132.10107422 761.578125 C89.79900429 755.18732444 41.03030741 738.98548434 13.65234375 704 C5.10809908 692.35777988 -1.35550289 679.71607017 -1.24723816 665.03587341 C-1.24965399 664.26883337 -1.25206982 663.50179333 -1.25455886 662.71150964 C-1.2601875 660.13888465 -1.25152507 657.56651037 -1.24291992 654.99389648 C-1.24397578 653.11546069 -1.24589795 651.23702522 -1.24860382 649.35859108 C-1.25345822 644.14537974 -1.24556339 638.93225197 -1.23561835 633.71905065 C-1.22676698 627.96442981 -1.2293254 622.20981099 -1.23017883 616.45518494 C-1.22991585 605.56352002 -1.21988001 594.67188469 -1.20529739 583.78023072 C-1.191611 573.52473168 -1.18247579 563.26923971 -1.17724609 553.01373291 C-1.12713426 457.44115707 -0.90205897 361.86875807 0 0 Z " fill="#000000" transform="translate(243,393)"/>
<path d="M0 0 C5.14835209 4.6249719 8.46164548 8.97109761 9.2578125 16.00390625 C8.43391998 24.10551604 3.97688178 29.57521468 -2.1171875 34.69140625 C-5.97919532 37.26127777 -9.99770624 39.50800226 -14.0546875 41.75390625 C-15.80112948 42.74065703 -17.54756085 43.72742758 -19.29315186 44.71568298 C-21.07604323 45.72368777 -22.86141771 46.72719144 -24.64697266 47.73046875 C-29.87640044 50.68549647 -35.05983869 53.71731001 -40.2421875 56.75390625 C-42.22384603 57.91165057 -44.20561689 59.06920266 -46.1875 60.2265625 C-47.65364746 61.08338623 -47.65364746 61.08338623 -49.14941406 61.95751953 C-55.13827061 65.45643852 -61.13050099 68.94957689 -67.12207031 72.44384766 C-72.0980935 75.34612329 -77.07334885 78.24969705 -82.046875 81.15625 C-93.47938219 87.83524104 -104.93254145 94.47687999 -116.40576172 101.08569336 C-124.65057875 105.83768373 -132.87336175 110.62644115 -141.08911133 115.4284668 C-148.31232749 119.64708024 -155.55491615 123.83112371 -162.8046875 128.00390625 C-172.7179575 133.71118549 -182.59510544 139.47734028 -192.45706177 145.27258301 C-201.02822325 150.3084659 -209.62306171 155.30036311 -218.2421875 160.25390625 C-227.03520898 165.30818901 -235.77798854 170.43997681 -244.4921875 175.62890625 C-254.87895968 181.81134763 -265.33735177 187.85206665 -275.84277344 193.82958984 C-284.32530526 198.65740203 -292.76759844 203.55027462 -301.19140625 208.47973633 C-308.37908845 212.68384112 -315.58752885 216.85063571 -322.8046875 221.00390625 C-332.71265045 226.70801741 -342.58526793 232.46977565 -352.44094849 238.26351929 C-359.06001638 242.15420799 -365.68635701 246.0306417 -372.34375 249.85546875 C-373.22090668 250.35968353 -373.22090668 250.35968353 -374.11578369 250.87408447 C-376.86864385 252.45568681 -379.62336244 254.03391554 -382.38085938 255.60742188 C-403.09186116 267.10831361 -403.09186116 267.10831361 -415.1171875 286.69140625 C-416.15765936 298.05131218 -413.38247383 305.79583193 -406.22265625 314.55859375 C-402.37138146 318.4598851 -397.90803461 321.08711743 -393.1171875 323.69140625 C-391.85261719 324.38556641 -391.85261719 324.38556641 -390.5625 325.09375 C-370.2877274 335.2311363 -344.70346386 335.70188623 -323.1171875 329.69140625 C-321.34794922 329.20994141 -321.34794922 329.20994141 -319.54296875 328.71875 C-307.21387048 324.71211514 -296.41791342 317.60356993 -285.41583252 310.89732361 C-279.31290808 307.18411677 -273.12744493 303.61871114 -266.9296875 300.06640625 C-258.6421826 295.30286442 -250.36942812 290.51579308 -242.1171875 285.69140625 C-232.70736802 280.19180851 -223.27248086 274.73691371 -213.828125 269.296875 C-206.5776726 265.11791497 -199.34230481 260.91400119 -192.1171875 256.69140625 C-183.79966958 251.83037665 -175.46513097 246.99999522 -167.1171875 242.19140625 C-154.75696232 235.07054217 -142.43251423 227.88957247 -130.1171875 220.69140625 C-112.38956979 210.32981847 -94.61948836 200.04421514 -76.82617188 189.79589844 C-58.87135534 179.45294263 -40.95065769 169.05374241 -23.08203125 158.5625 C-20.63547079 157.12620986 -18.18885506 155.69001394 -15.7421875 154.25390625 C-15.13462616 153.89724884 -14.52706482 153.54059143 -13.90109253 153.17312622 C-3.98994562 147.35671155 5.95341598 141.5986854 15.91308594 135.86572266 C22.45650733 132.09734992 28.98112828 128.29985122 35.484375 124.46264648 C45.59350779 118.49830712 55.73309484 112.5863701 65.8828125 106.69140625 C66.86556152 106.11970703 67.84831055 105.54800781 68.86083984 104.95898438 C71.67767192 103.32288584 74.49830177 101.69355267 77.3203125 100.06640625 C78.15336914 99.58187988 78.98642578 99.09735352 79.84472656 98.59814453 C87.18919093 94.38110612 94.60395223 90.65588157 102.8828125 88.69140625 C103.65109375 88.50578125 104.419375 88.32015625 105.2109375 88.12890625 C125.49955268 83.95524827 148.97102071 85.79251524 167.296875 95.953125 C173.49607921 100.12026378 179.53987823 104.88056821 182.8828125 111.69140625 C183.82383409 116.93760161 183.64702276 122.13775938 181.0703125 126.87890625 C173.87176427 136.67527767 160.93046303 142.27310024 150.59277344 148.14355469 C145.81404677 150.8730256 141.06964899 153.66122162 136.3203125 156.44140625 C127.81723629 161.41002594 119.29356399 166.34166185 110.7578125 171.25390625 C101.87618154 176.36663756 93.03411583 181.54046299 84.22143555 186.77099609 C75.921584 191.6884795 67.56481346 196.50504027 59.203125 201.31640625 C53.24568116 204.74601933 47.30011718 208.19300972 41.3828125 211.69140625 C33.27401617 216.48397477 25.11154335 221.18214584 16.94921875 225.8828125 C9.5800039 230.129046 2.22555216 234.39957035 -5.1171875 238.69140625 C-13.43467808 243.55248234 -21.76924435 248.38281747 -30.1171875 253.19140625 C-42.47741268 260.31227033 -54.80186077 267.49324003 -67.1171875 274.69140625 C-80.68794004 282.62335435 -94.2767581 290.52187732 -107.89794922 298.36694336 C-113.82089833 301.78094583 -119.73179612 305.2130771 -125.6171875 308.69140625 C-132.60974758 312.82408392 -139.64114799 316.8875899 -146.6796875 320.94140625 C-155.21349787 325.85685627 -163.73726669 330.78862183 -172.2421875 335.75390625 C-173.22171387 336.3257666 -174.20124023 336.89762695 -175.21044922 337.48681641 C-179.19328195 339.81303207 -183.17536107 342.14053235 -187.15673828 344.46923828 C-193.1775822 347.99061003 -199.20271952 351.50442312 -205.23291016 355.00976562 C-208.04699661 356.65048236 -210.85380935 358.30312148 -213.66015625 359.95703125 C-224.53015711 366.32236484 -235.45451494 371.92889739 -247.1171875 376.69140625 C-247.75865723 376.96146484 -248.40012695 377.23152344 -249.06103516 377.50976562 C-268.09115524 385.48204246 -288.78159958 389.63112214 -309.1171875 392.69140625 C-309.89900391 392.81 -310.68082031 392.92859375 -311.48632812 393.05078125 C-346.40086439 398.02588057 -382.84722258 395.11418622 -417.1171875 387.69140625 C-418.47505371 387.39943359 -418.47505371 387.39943359 -419.86035156 387.1015625 C-439.22079975 382.84651894 -457.71091012 376.18799348 -475.1171875 366.69140625 C-476.13554687 366.15128906 -477.15390625 365.61117188 -478.203125 365.0546875 C-501.59168611 352.1063286 -522.23271709 333.1519676 -529.9921875 306.94140625 C-533.85628545 289.40256647 -530.13654355 272.93599015 -520.87109375 257.7265625 C-505.81995122 234.67792976 -480.77022854 221.93429735 -457.578125 208.671875 C-452.00161636 205.4808029 -446.43357264 202.27509736 -440.8671875 199.06640625 C-439.7853418 198.4429834 -438.70349609 197.81956055 -437.58886719 197.17724609 C-429.84095738 192.7049609 -422.13339976 188.16792396 -414.43994141 183.6027832 C-406.30760748 178.78517156 -398.12211083 174.06216402 -389.9296875 169.34765625 C-382.64417414 165.15374962 -375.37457959 160.93377442 -368.1171875 156.69140625 C-359.79972031 151.83029047 -351.46513036 146.99999486 -343.1171875 142.19140625 C-331.74972401 135.64248329 -320.4115507 129.0446073 -309.08496094 122.42529297 C-304.09727793 119.51129785 -299.10710045 116.60158057 -294.1171875 113.69140625 C-292.1171757 112.52475982 -290.11717569 111.35809316 -288.1171875 110.19140625 C-284.1171875 107.85807292 -280.1171875 105.52473958 -276.1171875 103.19140625 C-274.6324292 102.3252771 -274.6324292 102.3252771 -273.11767578 101.44165039 C-271.11609539 100.27408897 -269.11446773 99.10660861 -267.11279297 97.93920898 C-262.13658358 95.03689209 -257.16118295 92.13320709 -252.1875 89.2265625 C-236.39724039 80.00150789 -220.56134744 70.85692884 -204.71337891 61.73144531 C-188.15305555 52.19733273 -188.15305555 52.19733273 -171.66577148 42.5378418 C-165.17636491 38.70922543 -158.64659466 34.95128369 -152.1171875 31.19140625 C-144.89286154 27.030743 -137.67251849 22.8651238 -130.4921875 18.62890625 C-129.84378906 18.24677979 -129.19539063 17.86465332 -128.52734375 17.47094727 C-125.46593928 15.66642767 -122.40491627 13.86126656 -119.34472656 12.0546875 C-112.29074472 7.89529437 -105.21667272 3.77265784 -98.1171875 -0.30859375 C-97.29589355 -0.78312988 -96.47459961 -1.25766602 -95.62841797 -1.74658203 C-67.34825962 -17.95220116 -27.11342482 -21.11446149 0 0 Z " fill="#010101" transform="translate(775.1171875,56.30859375)"/>
<path d="M0 0 C6.03474709 3.64121871 10.17486156 8.88730917 12.0859375 15.6796875 C15.17872991 33.57732227 9.58216676 49.73121491 -0.4375 64.4375 C-4.06475397 69.0299724 -7.66990377 73.23686333 -12.52929688 76.53759766 C-15.09252782 78.67510733 -15.88176132 80.07899067 -16.21044922 83.40161133 C-16.25111789 84.94041701 -16.26005262 86.48029193 -16.2421875 88.01953125 C-16.25589386 88.83371017 -16.26960022 89.6478891 -16.28372192 90.48674011 C-16.32097106 93.07505812 -16.31731098 95.66145238 -16.3125 98.25 C-16.33063054 100.00979555 -16.35143436 101.76956572 -16.375 103.52929688 C-16.42680259 107.83235286 -16.44193416 112.13414934 -16.4375 116.4375 C-15.84324219 116.08969482 -15.24898437 115.74188965 -14.63671875 115.38354492 C-11.90732673 113.79095741 -9.17249794 112.2079394 -6.4375 110.625 C-5.03564453 109.80418945 -5.03564453 109.80418945 -3.60546875 108.96679688 C7.15687606 102.75775179 16.03253704 100.15077399 28.5625 101.4375 C35.51195218 103.30330623 39.783468 107.13665227 44.08984375 112.765625 C49.40333262 122.40601329 48.99631127 131.98982853 48.96655273 142.66259766 C48.97226139 144.51148897 48.97922757 146.36037675 48.98735046 148.20925903 C49.00524799 153.21375697 49.00411917 158.21807922 48.99840808 163.22259951 C48.99530946 167.41191337 49.00141658 171.60119381 49.00744683 175.79050291 C49.02148101 185.68344316 49.01994164 195.57629704 49.00854492 205.46923828 C48.99708131 215.64447819 49.01111237 225.81945398 49.0379414 235.99465907 C49.06016764 244.75510618 49.06671973 253.51547083 49.06086498 262.27594411 C49.05750874 267.49716411 49.0598206 272.71821511 49.07711601 277.93941116 C49.09269236 282.85615854 49.08851215 287.77251829 49.06981087 292.68925095 C49.06615351 294.48257122 49.06914897 296.27592089 49.07969666 298.06921387 C49.1562894 312.18123749 47.54562698 325.08790227 40.75 337.75 C40.40308105 338.41604248 40.05616211 339.08208496 39.69873047 339.76831055 C36.74647337 345.32316217 33.4954663 350.51721229 29.5625 355.4375 C28.50675781 356.77361328 28.50675781 356.77361328 27.4296875 358.13671875 C20.80085376 365.97974481 13.26815667 371.19866359 4.5625 376.4375 C3.73782227 376.93411133 2.91314453 377.43072266 2.06347656 377.94238281 C-2.14196621 380.45686426 -6.36457489 382.94209452 -10.61328125 385.3828125 C-11.30333252 385.78000488 -11.99338379 386.17719727 -12.7043457 386.58642578 C-14.4375 387.4375 -14.4375 387.4375 -16.4375 387.4375 C-16.4375 400.3075 -16.4375 413.1775 -16.4375 426.4375 C-12.1475 426.4375 -7.8575 426.4375 -3.4375 426.4375 C2.35953136 428.15513892 6.18051688 432.55696261 9.5625 437.4375 C12.30723062 442.74142001 13.11234163 447.02627618 13.0625 452.875 C13.05750488 453.65560791 13.05250977 454.43621582 13.04736328 455.24047852 C12.52134313 473.18864876 3.56586966 489.30484608 -8.85546875 501.88671875 C-18.63671593 511.06137695 -26.76417755 514.90276732 -40.20703125 514.78125 C-46.47788421 514.11397665 -49.87837048 510.9619822 -54.25 506.6875 C-60.71488144 497.08253328 -60.75852839 485.86042145 -58.78125 474.75 C-54.65301598 458.80647551 -45.58950008 445.38826789 -33.4375 434.4375 C-32.7775 434.1075 -32.1175 433.7775 -31.4375 433.4375 C-31.1075 421.2275 -30.7775 409.0175 -30.4375 396.4375 C-34.19125 398.603125 -37.945 400.76875 -41.8125 403 C-48.88802083 407.08203125 -55.96354167 411.1640625 -63.0390625 415.24609375 C-64.09786621 415.85694824 -65.15666992 416.46780273 -66.24755859 417.09716797 C-68.38327913 418.32930186 -70.5190215 419.56139789 -72.65478516 420.79345703 C-79.37151574 424.66822103 -86.08737477 428.54449152 -92.80273438 432.42163086 C-96.08125579 434.31368581 -99.36082407 436.20391412 -102.640625 438.09375 C-106.13459652 440.10714826 -109.62490302 442.12646049 -113.109375 444.15625 C-114.3854087 444.89584707 -115.66144954 445.63543184 -116.9375 446.375 C-117.9790625 446.98214844 -119.020625 447.58929687 -120.09375 448.21484375 C-122.4375 449.4375 -122.4375 449.4375 -124.4375 449.4375 C-124.4375 462.3075 -124.4375 475.1775 -124.4375 488.4375 C-120.8075 488.4375 -117.1775 488.4375 -113.4375 488.4375 C-106.09829277 491.26833708 -101.08402901 495.31808623 -97.4375 502.4375 C-92.56372749 515.0950264 -95.94348011 528.87396674 -100.83984375 541.0078125 C-108.39775096 557.23236636 -119.56422985 569.81317913 -136.4375 576.4375 C-143.53778143 578.20994839 -150.09538171 578.44659604 -156.5859375 574.76171875 C-162.4048969 570.60005792 -165.59034835 565.33651813 -167.4375 558.4375 C-167.86018211 555.17514709 -167.91503928 551.97418926 -167.875 548.6875 C-167.86670166 547.80570068 -167.85840332 546.92390137 -167.84985352 546.01538086 C-167.45362681 530.652783 -159.88541946 515.62118843 -149.4375 504.4375 C-148.60984131 503.87200439 -147.78218262 503.30650879 -146.92944336 502.72387695 C-143.3380078 500.20428473 -140.12359379 497.83274738 -138.86764526 493.44805908 C-138.00803693 487.78375197 -138.18690367 482.08584351 -138.3125 476.375 C-138.31444458 474.63346268 -138.3118805 472.89191418 -138.3046875 471.15039062 C-138.29690895 466.91084651 -138.35035513 462.67611215 -138.4375 458.4375 C-139.40937256 459.03715576 -139.40937256 459.03715576 -140.40087891 459.64892578 C-150.69888331 465.92912651 -161.0189942 471.51292152 -173.4375 469.4375 C-180.83718936 467.12642223 -186.1601771 462.86543218 -190.4375 456.4375 C-191.78950615 453.82637361 -192.63239488 451.25718418 -193.4375 448.4375 C-193.78600006 447.22723648 -194.13450012 446.01697296 -194.49356079 444.77003479 C-196.10692209 437.3259448 -195.73318869 429.63310296 -195.72802734 422.05444336 C-195.73401912 420.29584469 -195.74082616 418.53724865 -195.74838257 416.77865601 C-195.76598792 412.01998777 -195.77073576 407.26139155 -195.77201414 402.50269389 C-195.77343989 399.52234772 -195.77771759 396.5420196 -195.78300858 393.56167793 C-195.80149382 383.14307629 -195.80968145 372.7245257 -195.80810547 362.3059082 C-195.80690588 352.62943111 -195.82797634 342.95317772 -195.8595928 333.27675718 C-195.88584528 324.94177683 -195.89646895 316.60686911 -195.89519465 308.27184778 C-195.89468746 303.3060036 -195.90023441 298.34035819 -195.92155075 293.37455559 C-195.94108388 288.69666141 -195.94095586 284.01915246 -195.92651749 279.34124374 C-195.92444653 277.63702766 -195.92902629 275.93278649 -195.9412384 274.2286129 C-196.0367146 259.96620177 -194.16471487 246.56626466 -187.6875 233.625 C-187.17316406 232.56829102 -187.17316406 232.56829102 -186.6484375 231.49023438 C-183.54714914 225.3046355 -179.83330855 219.78515686 -175.4375 214.4375 C-174.82390625 213.66148437 -174.2103125 212.88546875 -173.578125 212.0859375 C-164.97256496 201.73792936 -153.35510384 194.46196365 -141.4375 188.4375 C-140.7775 188.4375 -140.1175 188.4375 -139.4375 188.4375 C-139.4375 175.5675 -139.4375 162.6975 -139.4375 149.4375 C-143.3975 149.4375 -147.3575 149.4375 -151.4375 149.4375 C-159.16828878 145.73543214 -163.86372521 140.85326708 -166.82006836 132.65600586 C-167.84448644 128.97514896 -167.88445869 125.42490923 -167.8125 121.625 C-167.80089844 120.8323877 -167.78929687 120.03977539 -167.77734375 119.22314453 C-167.26223838 100.67556361 -157.36576959 83.8196431 -144.1875 71.1875 C-136.17093626 64.30219352 -126.85089324 60.01484213 -116.28515625 60.16796875 C-109.94906579 60.76768102 -105.91957174 63.63292288 -101.625 68.1875 C-94.73028617 76.76653889 -94.55788717 85.30108129 -95.71875 96.0390625 C-98.43078994 112.05052908 -106.38064572 124.91144342 -117.4375 136.4375 C-118.23800781 137.29794922 -118.23800781 137.29794922 -119.0546875 138.17578125 C-120.13479762 139.31021644 -121.27846446 140.38383132 -122.4375 141.4375 C-123.0975 141.4375 -123.7575 141.4375 -124.4375 141.4375 C-124.1075 153.6475 -123.7775 165.8575 -123.4375 178.4375 C-119.8075 176.1275 -116.1775 173.8175 -112.4375 171.4375 C-106.9453125 168.390625 -106.9453125 168.390625 -104.19238281 166.91601562 C-99.52571736 164.41146706 -94.92238404 161.79466793 -90.3125 159.1875 C-89.30533936 158.61813721 -88.29817871 158.04877441 -87.26049805 157.4621582 C-81.56081214 154.23168632 -75.88615383 150.96496938 -70.25 147.625 C-63.03147686 143.34867118 -55.76798354 139.15175054 -48.48886108 134.97964478 C-47.21098448 134.24686434 -45.9336548 133.51312926 -44.65689087 132.77841187 C-42.85874974 131.74407092 -41.05858255 130.71334932 -39.2578125 129.68359375 C-38.20867676 129.08216553 -37.15954102 128.4807373 -36.07861328 127.86108398 C-33.4375 126.4375 -33.4375 126.4375 -30.4375 125.4375 C-30.4375 112.5675 -30.4375 99.6975 -30.4375 86.4375 C-31.4275 86.9325 -31.4275 86.9325 -32.4375 87.4375 C-39.03742488 87.97626938 -44.94208161 86.84789657 -50.42578125 83.06640625 C-56.62631951 77.52973718 -58.99888284 70.80558429 -59.81640625 62.6640625 C-60.65454182 44.43015575 -53.33549892 28.05052579 -41.4375 14.4375 C-40.90640625 13.82390625 -40.3753125 13.2103125 -39.828125 12.578125 C-30.01765167 2.02018703 -14.39826087 -6.46395912 0 0 Z " fill="#010101" transform="translate(833.4375,365.5625)"/>
<path d="M0 0 C6.03474709 3.64121871 10.17486156 8.88730917 12.0859375 15.6796875 C15.17872991 33.57732227 9.58216676 49.73121491 -0.4375 64.4375 C-4.06475397 69.0299724 -7.66990377 73.23686333 -12.52929688 76.53759766 C-15.09252782 78.67510733 -15.88176132 80.07899067 -16.21044922 83.40161133 C-16.25111789 84.94041701 -16.26005262 86.48029193 -16.2421875 88.01953125 C-16.25589386 88.83371017 -16.26960022 89.6478891 -16.28372192 90.48674011 C-16.32097106 93.07505812 -16.31731098 95.66145238 -16.3125 98.25 C-16.33063054 100.00979555 -16.35143436 101.76956572 -16.375 103.52929688 C-16.42680259 107.83235286 -16.44193416 112.13414934 -16.4375 116.4375 C-15.84324219 116.08969482 -15.24898437 115.74188965 -14.63671875 115.38354492 C-11.90732673 113.79095741 -9.17249794 112.2079394 -6.4375 110.625 C-5.03564453 109.80418945 -5.03564453 109.80418945 -3.60546875 108.96679688 C7.15687606 102.75775179 16.03253704 100.15077399 28.5625 101.4375 C35.51195218 103.30330623 39.783468 107.13665227 44.08984375 112.765625 C49.40333262 122.40601329 48.99631127 131.98982853 48.96655273 142.66259766 C48.97226139 144.51148897 48.97922757 146.36037675 48.98735046 148.20925903 C49.00524799 153.21375697 49.00411917 158.21807922 48.99840808 163.22259951 C48.99530946 167.41191337 49.00141658 171.60119381 49.00744683 175.79050291 C49.02148101 185.68344316 49.01994164 195.57629704 49.00854492 205.46923828 C48.99708131 215.64447819 49.01111237 225.81945398 49.0379414 235.99465907 C49.06016764 244.75510618 49.06671973 253.51547083 49.06086498 262.27594411 C49.05750874 267.49716411 49.0598206 272.71821511 49.07711601 277.93941116 C49.09269236 282.85615854 49.08851215 287.77251829 49.06981087 292.68925095 C49.06615351 294.48257122 49.06914897 296.27592089 49.07969666 298.06921387 C49.1562894 312.18123749 47.54562698 325.08790227 40.75 337.75 C40.40308105 338.41604248 40.05616211 339.08208496 39.69873047 339.76831055 C36.74647337 345.32316217 33.4954663 350.51721229 29.5625 355.4375 C28.50675781 356.77361328 28.50675781 356.77361328 27.4296875 358.13671875 C20.80085376 365.97974481 13.26815667 371.19866359 4.5625 376.4375 C3.73782227 376.93411133 2.91314453 377.43072266 2.06347656 377.94238281 C-2.14196621 380.45686426 -6.36457489 382.94209452 -10.61328125 385.3828125 C-11.30333252 385.78000488 -11.99338379 386.17719727 -12.7043457 386.58642578 C-14.4375 387.4375 -14.4375 387.4375 -16.4375 387.4375 C-16.4375 400.3075 -16.4375 413.1775 -16.4375 426.4375 C-12.1475 426.4375 -7.8575 426.4375 -3.4375 426.4375 C2.35953136 428.15513892 6.18051688 432.55696261 9.5625 437.4375 C12.30723062 442.74142001 13.11234163 447.02627618 13.0625 452.875 C13.05750488 453.65560791 13.05250977 454.43621582 13.04736328 455.24047852 C12.52134313 473.18864876 3.56586966 489.30484608 -8.85546875 501.88671875 C-18.63671593 511.06137695 -26.76417755 514.90276732 -40.20703125 514.78125 C-46.47788421 514.11397665 -49.87837048 510.9619822 -54.25 506.6875 C-60.71488144 497.08253328 -60.75852839 485.86042145 -58.78125 474.75 C-54.65301598 458.80647551 -45.58950008 445.38826789 -33.4375 434.4375 C-32.7775 434.1075 -32.1175 433.7775 -31.4375 433.4375 C-31.1075 421.2275 -30.7775 409.0175 -30.4375 396.4375 C-34.19125 398.603125 -37.945 400.76875 -41.8125 403 C-48.88802083 407.08203125 -55.96354167 411.1640625 -63.0390625 415.24609375 C-64.09786621 415.85694824 -65.15666992 416.46780273 -66.24755859 417.09716797 C-68.38327913 418.32930186 -70.5190215 419.56139789 -72.65478516 420.79345703 C-79.37151574 424.66822103 -86.08737477 428.54449152 -92.80273438 432.42163086 C-96.08125579 434.31368581 -99.36082407 436.20391412 -102.640625 438.09375 C-106.13459652 440.10714826 -109.62490302 442.12646049 -113.109375 444.15625 C-114.3854087 444.89584707 -115.66144954 445.63543184 -116.9375 446.375 C-117.9790625 446.98214844 -119.020625 447.58929687 -120.09375 448.21484375 C-122.4375 449.4375 -122.4375 449.4375 -124.4375 449.4375 C-124.4375 462.3075 -124.4375 475.1775 -124.4375 488.4375 C-120.8075 488.4375 -117.1775 488.4375 -113.4375 488.4375 C-106.09829277 491.26833708 -101.08402901 495.31808623 -97.4375 502.4375 C-92.56372749 515.0950264 -95.94348011 528.87396674 -100.83984375 541.0078125 C-108.39775096 557.23236636 -119.56422985 569.81317913 -136.4375 576.4375 C-143.53778143 578.20994839 -150.09538171 578.44659604 -156.5859375 574.76171875 C-162.4048969 570.60005792 -165.59034835 565.33651813 -167.4375 558.4375 C-167.86018211 555.17514709 -167.91503928 551.97418926 -167.875 548.6875 C-167.86670166 547.80570068 -167.85840332 546.92390137 -167.84985352 546.01538086 C-167.45362681 530.652783 -159.88541946 515.62118843 -149.4375 504.4375 C-148.60984131 503.87200439 -147.78218262 503.30650879 -146.92944336 502.72387695 C-143.3380078 500.20428473 -140.12359379 497.83274738 -138.86764526 493.44805908 C-138.00803693 487.78375197 -138.18690367 482.08584351 -138.3125 476.375 C-138.31444458 474.63346268 -138.3118805 472.89191418 -138.3046875 471.15039062 C-138.29690895 466.91084651 -138.35035513 462.67611215 -138.4375 458.4375 C-139.40937256 459.03715576 -139.40937256 459.03715576 -140.40087891 459.64892578 C-150.69888331 465.92912651 -161.0189942 471.51292152 -173.4375 469.4375 C-180.83718936 467.12642223 -186.1601771 462.86543218 -190.4375 456.4375 C-191.78950615 453.82637361 -192.63239488 451.25718418 -193.4375 448.4375 C-193.78600006 447.22723648 -194.13450012 446.01697296 -194.49356079 444.77003479 C-196.10692209 437.3259448 -195.73318869 429.63310296 -195.72802734 422.05444336 C-195.73401912 420.29584469 -195.74082616 418.53724865 -195.74838257 416.77865601 C-195.76598792 412.01998777 -195.77073576 407.26139155 -195.77201414 402.50269389 C-195.77343989 399.52234772 -195.77771759 396.5420196 -195.78300858 393.56167793 C-195.80149382 383.14307629 -195.80968145 372.7245257 -195.80810547 362.3059082 C-195.80690588 352.62943111 -195.82797634 342.95317772 -195.8595928 333.27675718 C-195.88584528 324.94177683 -195.89646895 316.60686911 -195.89519465 308.27184778 C-195.89468746 303.3060036 -195.90023441 298.34035819 -195.92155075 293.37455559 C-195.94108388 288.69666141 -195.94095586 284.01915246 -195.92651749 279.34124374 C-195.92444653 277.63702766 -195.92902629 275.93278649 -195.9412384 274.2286129 C-196.0367146 259.96620177 -194.16471487 246.56626466 -187.6875 233.625 C-187.17316406 232.56829102 -187.17316406 232.56829102 -186.6484375 231.49023438 C-183.54714914 225.3046355 -179.83330855 219.78515686 -175.4375 214.4375 C-174.82390625 213.66148437 -174.2103125 212.88546875 -173.578125 212.0859375 C-164.97256496 201.73792936 -153.35510384 194.46196365 -141.4375 188.4375 C-140.7775 188.4375 -140.1175 188.4375 -139.4375 188.4375 C-139.4375 175.5675 -139.4375 162.6975 -139.4375 149.4375 C-143.3975 149.4375 -147.3575 149.4375 -151.4375 149.4375 C-159.16828878 145.73543214 -163.86372521 140.85326708 -166.82006836 132.65600586 C-167.84448644 128.97514896 -167.88445869 125.42490923 -167.8125 121.625 C-167.80089844 120.8323877 -167.78929687 120.03977539 -167.77734375 119.22314453 C-167.26223838 100.67556361 -157.36576959 83.8196431 -144.1875 71.1875 C-136.17093626 64.30219352 -126.85089324 60.01484213 -116.28515625 60.16796875 C-109.94906579 60.76768102 -105.91957174 63.63292288 -101.625 68.1875 C-94.73028617 76.76653889 -94.55788717 85.30108129 -95.71875 96.0390625 C-98.43078994 112.05052908 -106.38064572 124.91144342 -117.4375 136.4375 C-118.23800781 137.29794922 -118.23800781 137.29794922 -119.0546875 138.17578125 C-120.13479762 139.31021644 -121.27846446 140.38383132 -122.4375 141.4375 C-123.0975 141.4375 -123.7575 141.4375 -124.4375 141.4375 C-124.1075 153.6475 -123.7775 165.8575 -123.4375 178.4375 C-119.8075 176.1275 -116.1775 173.8175 -112.4375 171.4375 C-106.9453125 168.390625 -106.9453125 168.390625 -104.19238281 166.91601562 C-99.52571736 164.41146706 -94.92238404 161.79466793 -90.3125 159.1875 C-89.30533936 158.61813721 -88.29817871 158.04877441 -87.26049805 157.4621582 C-81.56081214 154.23168632 -75.88615383 150.96496938 -70.25 147.625 C-63.03147686 143.34867118 -55.76798354 139.15175054 -48.48886108 134.97964478 C-47.21098448 134.24686434 -45.9336548 133.51312926 -44.65689087 132.77841187 C-42.85874974 131.74407092 -41.05858255 130.71334932 -39.2578125 129.68359375 C-38.20867676 129.08216553 -37.15954102 128.4807373 -36.07861328 127.86108398 C-33.4375 126.4375 -33.4375 126.4375 -30.4375 125.4375 C-30.4375 112.5675 -30.4375 99.6975 -30.4375 86.4375 C-31.4275 86.9325 -31.4275 86.9325 -32.4375 87.4375 C-39.03742488 87.97626938 -44.94208161 86.84789657 -50.42578125 83.06640625 C-56.62631951 77.52973718 -58.99888284 70.80558429 -59.81640625 62.6640625 C-60.65454182 44.43015575 -53.33549892 28.05052579 -41.4375 14.4375 C-40.90640625 13.82390625 -40.3753125 13.2103125 -39.828125 12.578125 C-30.01765167 2.02018703 -14.39826087 -6.46395912 0 0 Z M-0.4375 123.4375 C-2.2070331 124.46838096 -3.97795234 125.496885 -5.75 126.5234375 C-9.79182922 128.86897983 -13.82560631 131.22771223 -17.85546875 133.59375 C-24.68599178 137.59491039 -31.55866972 141.52033079 -38.4375 145.4375 C-48.44100771 151.1363783 -58.40648163 156.89712327 -68.34375 162.7109375 C-74.42789313 166.26958725 -80.53262746 169.78612397 -86.66015625 173.26953125 C-92.79729804 176.7762254 -98.88273052 180.37308358 -104.98242188 183.94433594 C-112.09456214 188.09787896 -119.25305452 192.16063749 -126.4375 196.1875 C-149.13414356 208.96012843 -166.80742903 220.62482138 -177.4375 245.4375 C-177.95559235 246.61625198 -178.47368469 247.79500397 -179.00747681 249.00947571 C-181.49292335 256.63378242 -180.85476487 264.87506633 -180.82568359 272.80541992 C-180.82975296 274.66891283 -180.83509689 276.53240333 -180.84161377 278.39588928 C-180.85524686 283.43698135 -180.85000604 288.47788846 -180.84047651 293.5189836 C-180.83286253 298.80126032 -180.83993004 304.08352158 -180.84463501 309.36579895 C-180.85008606 318.23176915 -180.84291652 327.09766426 -180.82861328 335.96362305 C-180.81227293 346.21057617 -180.81758797 356.45735033 -180.8340925 366.70429915 C-180.84770787 375.51046186 -180.84962722 384.31657073 -180.84177649 393.12274057 C-180.83710222 398.37885079 -180.83646873 403.63487688 -180.84638596 408.89098167 C-180.85505459 413.82981307 -180.84903553 418.76841361 -180.83170319 423.70722008 C-180.82773846 425.51883053 -180.82887215 427.33046044 -180.83549118 429.14206314 C-180.84369696 431.61610399 -180.83339729 434.08940638 -180.81845093 436.56340027 C-180.82514309 437.27906432 -180.83183526 437.99472837 -180.83873022 438.73207921 C-180.76544543 444.9918765 -178.97630173 448.82875274 -174.6875 453.3125 C-170.67864585 455.93367387 -169.1610947 456.13442381 -164.4375 455.4375 C-155.08010686 453.15793063 -147.18444272 447.92559068 -139.04589844 442.99902344 C-134.0677828 440.01886361 -129.02983183 437.14169564 -124 434.25 C-121.75385556 432.95581715 -119.50776245 431.66154518 -117.26171875 430.3671875 C-114.98700875 429.0572403 -112.71226931 427.74734421 -110.4375 426.4375 C-106.06199212 423.91754706 -101.68693866 421.39680859 -97.3125 418.875 C-96.23411865 418.25334961 -95.1557373 417.63169922 -94.04467773 416.99121094 C-86.86991198 412.85127995 -79.71246657 408.6825821 -72.5625 404.5 C-63.8848735 399.42474638 -55.1712909 394.41518607 -46.4375 389.4375 C-34.58358962 382.68023579 -22.77069755 375.85604123 -11.00830078 368.94042969 C-8.66877252 367.57270547 -6.31952598 366.22421592 -3.96484375 364.8828125 C13.24868184 354.99668016 24.42871889 342.05018344 31.5625 323.4375 C31.81591691 322.81808847 32.06933382 322.19867695 32.33043003 321.56049538 C35.39925146 312.99650799 34.99185133 304.22673415 34.96655273 295.26318359 C34.97226258 293.43234339 34.97922921 291.60150675 34.98735046 289.77067566 C35.00522476 284.82248961 35.00412483 279.87448145 34.99840808 274.92627287 C34.99530929 270.78844074 35.00141604 266.65064243 35.00744683 262.51281512 C35.02147033 252.75102757 35.01994763 242.98932759 35.00854492 233.22753906 C34.99705326 223.16744976 35.01116197 213.10762673 35.0379414 203.04757249 C35.06010666 194.39591835 35.06673427 185.74434774 35.06086498 177.09266722 C35.05749772 171.93148834 35.05989582 166.77048032 35.07711601 161.60932541 C35.09259725 156.75824607 35.08861647 151.90756139 35.06981087 147.05649757 C35.06612892 145.27958692 35.06922196 143.50264692 35.07969666 141.72576332 C35.09293511 139.29388607 35.08133526 136.86331022 35.06370544 134.43148804 C35.07331045 133.73400463 35.08291546 133.03652123 35.09281152 132.31790197 C35.01296485 126.93889517 33.40480946 122.90520059 30.5625 118.4375 C27.60508578 115.56970439 24.68118482 115.11091078 20.6875 114.75 C12.5987923 115.03926504 6.31030442 119.40993992 -0.4375 123.4375 Z " fill="#F8F8F8" transform="translate(833.4375,365.5625)"/>
<path d="M0 0 C0 26.73 0 53.46 0 81 C-7.59 85.29 -15.18 89.58 -23 94 C-26.94523462 96.28050951 -30.88502533 98.56485204 -34.8125 100.875 C-43.3348719 105.86723182 -51.87781671 110.82201747 -60.4375 115.75 C-68.13099071 120.1807944 -75.80836953 124.63530692 -83.45092773 129.15332031 C-89.94055276 132.98192426 -96.47043481 136.74003156 -103 140.5 C-110.89017142 145.04413969 -118.76801096 149.60623522 -126.60961914 154.23364258 C-142.27647696 163.47752268 -158.01603468 172.59588214 -173.77905273 181.67456055 C-179.7025771 185.0888791 -185.61404371 188.52133698 -191.5 192 C-199.6088777 196.79243331 -207.77126705 201.49073838 -215.93359375 206.19140625 C-223.3028086 210.43763975 -230.65726034 214.7081641 -238 219 C-246.31749058 223.86107609 -254.65205685 228.69141122 -263 233.5 C-271.38785061 238.33233463 -279.76403785 243.18378891 -288.125 248.0625 C-289.10001465 248.62960693 -290.0750293 249.19671387 -291.07958984 249.78100586 C-296.18922054 252.75676349 -301.27830079 255.76207037 -306.34375 258.8125 C-329.08373935 272.4378888 -351.88695267 280.57443937 -378.78100586 274.87011719 C-389.65147591 272.13666235 -401.52265488 267.4995045 -408.34375 258.16015625 C-410.75857984 254.04026075 -411.82270584 250.21511755 -410.88867188 245.47338867 C-407.22711492 235.28239045 -396.45466771 229.80189312 -387.5 225 C-386.23665316 224.30357735 -384.97445604 223.60506526 -383.71337891 222.90454102 C-381.24425137 221.53452223 -378.77107537 220.17238592 -376.29394531 218.81689453 C-372.27382305 216.59945087 -368.31612576 214.29154139 -364.375 211.9375 C-357.46700976 207.8444225 -350.51912205 203.82230124 -343.5625 199.8125 C-341.90021362 198.8541626 -341.90021362 198.8541626 -340.2043457 197.87646484 C-334.63841812 194.66903547 -329.07027468 191.46549829 -323.5 188.265625 C-312.45626063 181.91578896 -301.44955279 175.51109869 -290.5 169 C-278.47408303 161.84884655 -266.37471831 154.83255738 -254.24267578 147.86328125 C-236.45575996 137.6427014 -218.71083321 127.35177743 -201 117 C-187.59382119 109.16424334 -174.17079317 101.35962289 -160.71582031 93.60791016 C-149.4520275 87.11500122 -138.22447236 80.56057444 -127 74 C-113.42783902 66.06722868 -99.83803893 58.16712773 -86.21484375 50.32226562 C-79.68926773 46.56143185 -73.18627244 42.76616448 -66.70727539 38.92578125 C-62.18113597 36.2543649 -57.62420464 33.63935193 -53.0546875 31.04296875 C-52.43574615 30.69093887 -51.81680481 30.338909 -51.17910767 29.97621155 C-48.08236679 28.21540927 -44.98360288 26.45834375 -41.88134766 24.70727539 C-36.0642828 21.40478128 -30.38902184 18.01807652 -24.86425781 14.24658203 C-22.53048086 12.68604443 -20.11586733 11.35507942 -17.625 10.0625 C-12.61590996 7.3952303 -7.86434866 4.42681173 -3.1171875 1.3203125 C-1 0 -1 0 0 0 Z " fill="#010101" transform="translate(784,100)"/>
<path d="M0 0 C6.8809887 4.09139869 10.38393071 15.42807952 13.6875 22.375 C14.26901547 23.58965174 14.8506407 24.80425094 15.43237305 26.01879883 C18.73303421 32.93216028 21.91564968 39.88319225 24.92138672 46.92944336 C26.89363525 51.51930328 29.0592217 55.98175314 31.3125 60.4375 C31.64354736 61.09516357 31.97459473 61.75282715 32.31567383 62.43041992 C34.32508399 66.42142198 34.32508399 66.42142198 36.34765625 70.40576172 C37.35190309 72.3880037 38.33417928 74.37985983 39.3125 76.375 C39.89 77.53 40.4675 78.685 41.0625 79.875 C42.58371255 84.13439515 42.67095558 86.87801183 42.3125 91.375 C40.29747111 95.12712276 38.85783858 97.01144095 35.3125 99.375 C32.88671875 99.484375 32.88671875 99.484375 30.3125 98.375 C28.53195055 95.97191886 27.35237546 93.34293085 26.125 90.625 C25.78275391 89.90828125 25.44050781 89.1915625 25.08789062 88.453125 C23.36229314 84.8075909 21.79370304 81.12700154 20.3125 77.375 C11.50987672 81.60073937 3.10723825 86.33393848 -5.25 91.375 C-7.54130241 92.75281885 -9.83475452 94.12691547 -12.12890625 95.5 C-13.22912109 96.17417969 -14.32933594 96.84835937 -15.46289062 97.54296875 C-18.6875 99.375 -18.6875 99.375 -21.78710938 100.61328125 C-26.6527499 102.62236214 -29.06644193 104.08559384 -31.3996582 108.9296875 C-32.93067975 113.333408 -34.0061367 117.83857453 -35.0625 122.375 C-35.63630389 124.7021204 -36.2227204 127.02491161 -36.82632446 129.34448242 C-37.1965636 130.7798577 -37.54857232 132.22011171 -37.87850952 133.6652832 C-39.15795477 138.81097879 -41.01629905 141.68909464 -44.6875 145.375 C-47.9375 146.3125 -47.9375 146.3125 -50.6875 146.375 C-51.6875 145.375 -51.6875 145.375 -51.95336914 141.54150391 C-51.87800691 135.60681985 -50.20598085 130.3341575 -48.43359375 124.7109375 C-48.09505875 123.60183014 -47.75652374 122.49272278 -47.4077301 121.3500061 C-46.32519633 117.81294707 -45.22551115 114.28150182 -44.125 110.75 C-43.4122551 108.43264701 -42.70065689 106.11494101 -41.99023438 103.796875 C-40.5786301 99.19706115 -39.16069828 94.59927735 -37.73706055 90.00317383 C-33.75664695 77.14591052 -29.848768 64.26655788 -25.98829651 51.37280273 C-24.79498153 47.38947383 -23.59668258 43.40765307 -22.39770508 39.42602539 C-21.79139074 37.40756092 -21.1876119 35.38833334 -20.58618164 33.3684082 C-19.69575857 30.38023702 -18.79604062 27.39499869 -17.89453125 24.41015625 C-17.63090286 23.51740494 -17.36727448 22.62465363 -17.09565735 21.70484924 C-14.5932984 13.47903629 -12.00823442 6.34720203 -4.640625 1.39453125 C-2.6875 0.375 -2.6875 0.375 0 0 Z " fill="#F7F7F7" transform="translate(747.6875,598.625)"/>
<path d="M0 0 C4.24640184 4.66068495 4.73697437 9.3562741 4.51171875 15.5546875 C2.26312622 30.69406618 -6.16673146 45.38306026 -18 55 C-22.8925358 58.1557595 -28.03321947 61.24886104 -34 60 C-36.69990662 58.20006226 -38.5418865 56.916227 -40 54 C-41.43122259 38.29278503 -38.02818877 26.08941009 -28.20703125 13.5078125 C-20.93732959 5.24737274 -11.96701126 -4.41254662 0 0 Z " fill="#040404" transform="translate(720,869)"/>
<path d="M0 0 C3.49921767 2.22677488 5.44650913 4.18501135 7 8 C8.78679793 20.44525535 3.69150176 32.746116 -3 43 C-8.44425159 50.26327212 -16.61452924 59.85051039 -26.0078125 61.3125 C-29.54413238 61.52128641 -31.57235712 61.31799086 -34.4375 59.1875 C-38.41407113 53.62030042 -37.46567107 46.52604738 -37 40 C-34.35720668 26.03777264 -25.94275434 12.23132118 -14.19140625 4.04296875 C-9.27279974 1.19324693 -5.79456553 -0.52605409 0 0 Z " fill="#040404" transform="translate(717,440)"/>
<path d="M0 0 C2.88528231 2.7410182 4.82867164 5.32603765 5.23828125 9.328125 C5.65973267 25.92000186 -0.56994503 38.80538867 -11.6875 50.73046875 C-17.88924215 56.81697582 -22.981747 60.41698864 -31.83984375 60.359375 C-34 60 -34 60 -36.5 57.625 C-40.26700078 51.03274863 -39.79953161 43.97481429 -38.31640625 36.6015625 C-33.96601525 21.40227112 -24.80327238 8.90842879 -11 1 C-7.53969009 -0.73015495 -3.77455703 -0.61789902 0 0 Z " fill="#040404" transform="translate(827,378)"/>
<path d="M0 0 C2.81255164 2.67192406 4.83750533 5.2563072 5.203125 9.1796875 C5.46925252 24.48201964 0.2136149 37.66512997 -10 49 C-15.7886522 54.77854984 -21.14394026 59.94748796 -29.625 60.5 C-33.22152927 60.39101426 -33.75502981 60.23272168 -36.5 57.625 C-40.32990144 50.92267248 -39.85296282 43.36260603 -38.38671875 35.86328125 C-34.24575111 22.19991227 -25.70563436 9.55806128 -13.5 1.9375 C-9.0997778 -0.27417035 -4.84820316 -1.24362726 0 0 Z " fill="#030303" transform="translate(827,806)"/>
<path d="M0 0 C2.6875 0.5 2.6875 0.5 3.6875 1.5 C3.78954482 2.93066224 3.82268196 4.36631089 3.82794189 5.80059814 C3.83650711 7.19277809 3.83650711 7.19277809 3.84524536 8.61308289 C3.84636322 9.63956436 3.84748108 10.66604584 3.84863281 11.72363281 C3.85359772 12.79839371 3.85856262 13.8731546 3.86367798 14.98048401 C3.87834552 18.55470407 3.88510982 22.12887972 3.890625 25.703125 C3.89637341 28.17836509 3.90213117 30.65360516 3.90789795 33.12884521 C3.91842152 38.32759815 3.92425506 43.52633556 3.92773438 48.72509766 C3.93243091 55.39127713 3.95723403 62.05722303 3.98570633 68.72334671 C4.00431955 73.8396871 4.00953765 78.95597816 4.01107025 84.07234955 C4.01410112 86.5299669 4.02214417 88.9875833 4.03525543 91.44516754 C4.05228534 94.88319988 4.05044269 98.32073181 4.04394531 101.75878906 C4.0531601 102.77717361 4.06237488 103.79555817 4.0718689 104.84480286 C4.02081209 113.45701582 4.02081209 113.45701582 0.6875 117.5 C-1.75 119.875 -1.75 119.875 -4.3125 121.5 C-6.56963514 121.31190541 -7.70795559 121.10454441 -9.3125 119.5 C-9.42106291 118.06139531 -9.46098021 116.61754026 -9.47312927 115.17489624 C-9.4831749 114.24125244 -9.49322052 113.30760864 -9.50357056 112.34567261 C-9.50940155 111.31298248 -9.51523254 110.28029236 -9.52124023 109.21630859 C-9.53102402 108.13500671 -9.5408078 107.05370483 -9.55088806 105.93963623 C-9.58092848 102.34258266 -9.60225388 98.74556657 -9.62109375 95.1484375 C-9.63095149 93.30944822 -9.63095149 93.30944822 -9.64100838 91.43330765 C-9.67027306 85.61180342 -9.69418631 79.79031498 -9.7114405 73.96876276 C-9.7297509 67.92049514 -9.76304092 61.87273966 -9.82006836 55.82470703 C-9.88021843 49.33959336 -9.91099903 42.85496631 -9.92070198 36.36958694 C-9.92926875 33.89682996 -9.94811655 31.42408638 -9.9774456 28.95148849 C-10.01631884 25.48710166 -10.01739881 22.02461143 -10.00952148 18.56005859 C-10.02952209 17.53951385 -10.04952271 16.51896912 -10.07012939 15.46749878 C-10.00883491 9.45662693 -9.08207421 6.10858776 -4.92398167 1.69124794 C-3.3125 0.5 -3.3125 0.5 0 0 Z " fill="#FDFDFD" transform="translate(821.3125,556.5)"/>
<path d="M0 0 C3.38135632 2.74336456 4.78986836 6.48922997 6.50390625 10.37109375 C6.82785873 11.0898317 7.15181122 11.80856964 7.48558044 12.54908752 C8.51765557 14.84239943 9.5402987 17.1397724 10.5625 19.4375 C11.5903317 21.73068854 12.62005268 24.0230208 13.65013123 26.31520081 C14.28963853 27.74014211 14.92745888 29.16584205 15.56336975 30.59239197 C17.28965284 34.469822 17.28965284 34.469822 19.27319336 38.21899414 C20 40 20 40 19.89892578 42.06762695 C18.65697261 44.73738778 17.16536206 45.47033553 14.6171875 46.91796875 C13.70340332 47.44624268 12.78961914 47.9745166 11.84814453 48.51879883 C10.86700684 49.06947021 9.88586914 49.6201416 8.875 50.1875 C6.8695279 51.34068725 4.86432082 52.49433549 2.859375 53.6484375 C1.37147461 54.49680176 1.37147461 54.49680176 -0.14648438 55.36230469 C-4.08900249 57.62500246 -7.98517903 59.96072874 -11.875 62.3125 C-13.08064787 63.03789556 -14.28636771 63.76317152 -15.4921875 64.48828125 C-16.73355469 65.23658203 -16.73355469 65.23658203 -18 66 C-19.6955252 62.60894961 -17.7660339 59.11589883 -16.71875 55.64453125 C-16.46957825 54.79835236 -16.22040649 53.95217346 -15.96368408 53.08035278 C-15.14950627 50.3222585 -14.32492866 47.56739593 -13.5 44.8125 C-12.94378456 42.93644268 -12.38812041 41.06022183 -11.83300781 39.18383789 C-7.95593044 26.10243546 -4.02842169 13.03563217 0 0 Z " fill="#060606" transform="translate(742,621)"/>
<path d="M0 0 C0 4.33685836 -2.08014014 5.9443327 -5 9 C-5.99 9 -6.98 9 -8 9 C-10.01151741 9.63106429 -12.01363702 10.29373761 -14 11 C-12.4958659 6.6970341 -9.75152588 5.39446112 -5.875 3.25 C-4.77929688 2.63640625 -3.68359375 2.0228125 -2.5546875 1.390625 C-1.71164062 0.93171875 -0.86859375 0.4728125 0 0 Z " fill="#EAEAEA" transform="translate(673,148)"/>
<path d="M0 0 C0.66 0.66 1.32 1.32 2 2 C1.4225 2.48210938 0.845 2.96421875 0.25 3.4609375 C-0.4925 4.09257813 -1.235 4.72421875 -2 5.375 C-2.7425 6.00148438 -3.485 6.62796875 -4.25 7.2734375 C-5.11625 8.12808594 -5.11625 8.12808594 -6 9 C-6 9.66 -6 10.32 -6 11 C-6.66 11 -7.32 11 -8 11 C-8.33 11.99 -8.66 12.98 -9 14 C-13.455 14.495 -13.455 14.495 -18 15 C-16.03436897 13.51922462 -14.06498891 12.04696567 -12.0703125 10.60546875 C-7.63932885 7.37565537 -3.78177695 3.9708658 0 0 Z " fill="#202020" transform="translate(720,925)"/>
<path d="M0 0 C0.66 0.33 1.32 0.66 2 1 C1.67 2.65 1.34 4.3 1 6 C0.34 5.67 -0.32 5.34 -1 5 C-1.5775 5.515625 -2.155 6.03125 -2.75 6.5625 C-5 8 -5 8 -7.25 7.6875 C-7.8275 7.460625 -8.405 7.23375 -9 7 C-9 6.34 -9 5.68 -9 5 C-7.54735962 4.1361871 -6.0876837 3.28419546 -4.625 2.4375 C-3.40683594 1.72400391 -3.40683594 1.72400391 -2.1640625 0.99609375 C-1.44992187 0.66738281 -0.73578125 0.33867187 0 0 Z " fill="#EEEEEE" transform="translate(796,279)"/>
<path d="M0 0 C0.66 0.33 1.32 0.66 2 1 C0.68 2.32 -0.64 3.64 -2 5 C-1.67 5.66 -1.34 6.32 -1 7 C-5.43076923 9.09230769 -5.43076923 9.09230769 -8.3125 8.625 C-8.869375 8.41875 -9.42625 8.2125 -10 8 C-8.7820245 4.34607349 -7.85603494 4.04168301 -4.5625 2.25 C-3.75941406 1.80140625 -2.95632813 1.3528125 -2.12890625 0.890625 C-1.07509766 0.44976563 -1.07509766 0.44976563 0 0 Z " fill="#EFEFEF" transform="translate(771,999)"/>
<path d="M0 0 C0.99 0.33 1.98 0.66 3 1 C2.55785156 1.42152344 2.11570312 1.84304688 1.66015625 2.27734375 C0.0445022 3.95382242 -1.24338779 5.64792648 -2.5625 7.5625 C-3.96531348 9.59461298 -5.2431353 11.2431353 -7 13 C-7.99 12.01 -8.98 11.02 -10 10 C-9.52949219 9.61328125 -9.05898438 9.2265625 -8.57421875 8.828125 C-5.3182388 6.10469664 -2.34546467 3.58718126 0 0 Z " fill="#EFEFEF" transform="translate(852,711)"/>
<path d="M0 0 C0 3 0 3 -2 6 C-2.763125 6.28875 -3.52625 6.5775 -4.3125 6.875 C-7.67259378 8.28155088 -9.5538473 10.34417707 -12 13 C-12.66 12.67 -13.32 12.34 -14 12 C-9.61869443 7.41853326 -5.45156722 3.27094033 0 0 Z " fill="#ECECEC" transform="translate(805,369)"/>
<path d="M0 0 C-1 3 -1 3 -3.28515625 4.38671875 C-4.20167969 4.81597656 -5.11820313 5.24523437 -6.0625 5.6875 C-6.98160156 6.12449219 -7.90070312 6.56148438 -8.84765625 7.01171875 C-9.55792969 7.33785156 -10.26820313 7.66398437 -11 8 C-11 7.01 -11 6.02 -11 5 C-10.34 5 -9.68 5 -9 5 C-9 4.34 -9 3.68 -9 3 C-5.63316085 0.56839395 -4.26649636 0 0 0 Z " fill="#F1F1F1" transform="translate(791,297)"/>
<path d="M0 0 C2.28980473 1.14490236 4.09232751 2.28309476 6 4 C6 5.32 6 6.64 6 8 C2.08788267 6.84414715 -0.8745041 5.64465038 -4 3 C-2.68 2.01 -1.36 1.02 0 0 Z " fill="#EBEBEB" transform="translate(937,145)"/>
<path d="M0 0 C0.66 0.33 1.32 0.66 2 1 C1.34 2.65 0.68 4.3 0 6 C-0.66 6 -1.32 6 -2 6 C-2 6.66 -2 7.32 -2 8 C-4.31 7.34 -6.62 6.68 -9 6 C-3.30379747 1.25316456 -3.30379747 1.25316456 0 0 Z " fill="#151515" transform="translate(669,263)"/>
<path d="M0 0 C3.57142857 3.57142857 3.57142857 3.57142857 4 7 C3.67 7.99 3.34 8.98 3 10 C2.34 10 1.68 10 1 10 C1 9.34 1 8.68 1 8 C0.01 8.33 -0.98 8.66 -2 9 C-1.34 6.03 -0.68 3.06 0 0 Z " fill="#181818" transform="translate(742,621)"/>
<path d="M0 0 C0.66 0.33 1.32 0.66 2 1 C1.01 2.485 1.01 2.485 0 4 C0.33 4.66 0.66 5.32 1 6 C-0.65 6.66 -2.3 7.32 -4 8 C-4.66 7.34 -5.32 6.68 -6 6 C-6.99 6.495 -6.99 6.495 -8 7 C-6.88424427 3.65273281 -6.48655378 3.37920252 -3.5625 1.75 C-2.386875 1.1725 -1.21125 0.595 0 0 Z " fill="#141414" transform="translate(657,376)"/>
<path d="M0 0 C0.33 1.32 0.66 2.64 1 4 C-1.38650485 4.99437702 -3.66336318 5.92305444 -6.1875 6.5 C-8.23284665 6.9037763 -8.23284665 6.9037763 -10 9 C-10.33 8.01 -10.66 7.02 -11 6 C-7.37 4.02 -3.74 2.04 0 0 Z " fill="#171717" transform="translate(430,306)"/>
<path d="M0 0 C0.66 0.33 1.32 0.66 2 1 C-1.43451143 5.78378378 -1.43451143 5.78378378 -4.125 6.8125 C-6 7 -6 7 -8 7 C-6.88424427 3.65273281 -6.48655378 3.37920252 -3.5625 1.75 C-2.386875 1.1725 -1.21125 0.595 0 0 Z " fill="#E7E7E7" transform="translate(749,200)"/>
<path d="M0 0 C0.66 0.33 1.32 0.66 2 1 C-1.43451143 5.78378378 -1.43451143 5.78378378 -4.125 6.8125 C-6 7 -6 7 -8 7 C-6.88424427 3.65273281 -6.48655378 3.37920252 -3.5625 1.75 C-2.386875 1.1725 -1.21125 0.595 0 0 Z " fill="#171717" transform="translate(429,200)"/>
<path d="M0 0 C0 3.57575896 -1.08840607 5.05295935 -3 8 C-4.65 7.67 -6.3 7.34 -8 7 C-6.5361389 2.60841671 -4.02168662 2.12052567 0 0 Z " fill="#F0F0F0" transform="translate(934,199)"/>
<path d="M0 0 C0.66 0.33 1.32 0.66 2 1 C0.55802132 3.88395737 -1.70644235 5.76525152 -4 8 C-4.99 6.68 -5.98 5.36 -7 4 C-1.7265625 0.77734375 -1.7265625 0.77734375 0 0 Z " fill="#111111" transform="translate(714,343)"/>
<path d="M0 0 C0.66 0.99 1.32 1.98 2 3 C-3.17578125 6.22265625 -3.17578125 6.22265625 -5 7 C-5.99 6.67 -6.98 6.34 -8 6 C-5.51047079 3.33264727 -3.36591866 1.44253657 0 0 Z " fill="#0E0E0E" transform="translate(742,327)"/>
<path d="M0 0 C0.33 0.66 0.66 1.32 1 2 C-3.46428571 6.46428571 -3.46428571 6.46428571 -7 7 C-7.99 6.67 -8.98 6.34 -10 6 C-6.7 4.02 -3.4 2.04 0 0 Z " fill="#181818" transform="translate(297,277)"/>
<path d="M0 0 C1.32 0.66 2.64 1.32 4 2 C-0.75 6 -0.75 6 -3 6 C-3.33 5.01 -3.66 4.02 -4 3 C-2.68 2.01 -1.36 1.02 0 0 Z " fill="#0F0F0F" transform="translate(698,921)"/>
<path d="M0 0 C0.66 0.33 1.32 0.66 2 1 C1.67 1.66 1.34 2.32 1 3 C0.34 3 -0.32 3 -1 3 C-0.67 4.32 -0.34 5.64 0 7 C-0.99 7.33 -1.98 7.66 -3 8 C-3.99 6.68 -4.98 5.36 -6 4 C-4.02 2.68 -2.04 1.36 0 0 Z " fill="#1C1C1C" transform="translate(819,871)"/>
<path d="M0 0 C1.3921875 0.3403125 1.3921875 0.3403125 2.8125 0.6875 C1.1625 2.0075 -0.4875 3.3275 -2.1875 4.6875 C-3.5075 4.0275 -4.8275 3.3675 -6.1875 2.6875 C-4.14987265 -0.14253799 -3.59070275 -0.35202968 0 0 Z " fill="#101010" transform="translate(701.1875,801.3125)"/>
<path d="M0 0 C0.66 0.33 1.32 0.66 2 1 C2 2.98 2 4.96 2 7 C1.38125 7.144375 0.7625 7.28875 0.125 7.4375 C-2.03258322 7.93152225 -2.03258322 7.93152225 -4 9 C-3.35455571 5.51460083 -1.89865603 2.97180943 0 0 Z " fill="#111111" transform="translate(869,711)"/>
<path d="M0 0 C-1.25842768 3.77528304 -2.62493429 4.10667045 -6 6 C-6.66 6.66 -7.32 7.32 -8 8 C-8.66 7.67 -9.32 7.34 -10 7 C-8.60449526 2.81348579 -4.64858615 0 0 0 Z " fill="#E8E8E8" transform="translate(687,141)"/>
<path d="M0 0 C0.66 0.33 1.32 0.66 2 1 C1.67 2.32 1.34 3.64 1 5 C-0.32 5.33 -1.64 5.66 -3 6 C-3.66 5.01 -4.32 4.02 -5 3 C-2.625 1.4375 -2.625 1.4375 0 0 Z " fill="#F0F0F0" transform="translate(562,415)"/>
<path d="M0 0 C0.66 0.33 1.32 0.66 2 1 C1.2884375 1.61875 1.2884375 1.61875 0.5625 2.25 C-1.16266518 4.182185 -1.56584875 5.48192275 -2 8 C-2.99 7.67 -3.98 7.34 -5 7 C-5 5.68 -5 4.36 -5 3 C-2.625 1.1875 -2.625 1.1875 0 0 Z " fill="#EEEEEE" transform="translate(613,183)"/>
<path d="M0 0 C0.66 0.33 1.32 0.66 2 1 C-1.625 6.875 -1.625 6.875 -5 8 C-5.33 7.34 -5.66 6.68 -6 6 C-5 3 -5 3 -2.5625 1.25 C-1.716875 0.8375 -0.87125 0.425 0 0 Z " fill="#121212" transform="translate(651,71)"/>
<path d="M0 0 C1.98 0 3.96 0 6 0 C6.66 1.65 7.32 3.3 8 5 C2.25 3.125 2.25 3.125 0 2 C0 1.34 0 0.68 0 0 Z " fill="#171717" transform="translate(302,1130)"/>
<path d="M0 0 C0.66 0.33 1.32 0.66 2 1 C2 1.99 2 2.98 2 4 C0.35 4.66 -1.3 5.32 -3 6 C-3.33 4.68 -3.66 3.36 -4 2 C-2.125 0.9375 -2.125 0.9375 0 0 Z " fill="#111111" transform="translate(869,938)"/>
<path d="M0 0 C0.66 0.33 1.32 0.66 2 1 C1.67 1.66 1.34 2.32 1 3 C0.01 3.33 -0.98 3.66 -2 4 C-3.66710346 5.49985609 -3.66710346 5.49985609 -5 7 C-5.66 6.67 -6.32 6.34 -7 6 C-7 5.34 -7 4.68 -7 4 C-1.7265625 0.77734375 -1.7265625 0.77734375 0 0 Z " fill="#E7E7E7" transform="translate(893,928)"/>
<path d="M0 0 C0.66 0.33 1.32 0.66 2 1 C-0.0140476 4.0210714 -1.63279613 5.60667426 -5 7 C-5.66 6.01 -6.32 5.02 -7 4 C-1.7265625 0.77734375 -1.7265625 0.77734375 0 0 Z " fill="#1C1C1C" transform="translate(756,681)"/>
<path d="M0 0 C0 3.64478912 -0.85802506 5.09303401 -3 8 C-5.1875 8.8125 -5.1875 8.8125 -7 9 C-7 6 -7 6 -5.46875 4.39453125 C-4.49421875 3.61142578 -4.49421875 3.61142578 -3.5 2.8125 C-2.8503125 2.28269531 -2.200625 1.75289063 -1.53125 1.20703125 C-1.0259375 0.80871094 -0.520625 0.41039062 0 0 Z " fill="#E5E5E5" transform="translate(815,428)"/>
<path d="M0 0 C0.99 0.33 1.98 0.66 3 1 C2.1875 2.9375 2.1875 2.9375 1 5 C0.01 5.33 -0.98 5.66 -2 6 C-2.99 5.01 -3.98 4.02 -5 3 C-2.6875 1.4375 -2.6875 1.4375 0 0 Z " fill="#ECECEC" transform="translate(612,386)"/>
<path d="M0 0 C1 3 1 3 0.25 5 C-0.98548635 6.97677816 -2.28039676 8.43672433 -4 10 C-4.66 9.67 -5.32 9.34 -6 9 C-4.02 6.03 -2.04 3.06 0 0 Z " fill="#E6E6E6" transform="translate(790,382)"/>
<path d="M0 0 C0.66 0.99 1.32 1.98 2 3 C0.625 6.6875 0.625 6.6875 -1 10 C-1.66 9.67 -2.32 9.34 -3 9 C-2.25 2.25 -2.25 2.25 0 0 Z " fill="#ECECEC" transform="translate(685,888)"/>
<path d="M0 0 C1.32 0.66 2.64 1.32 4 2 C3.0409375 2.433125 3.0409375 2.433125 2.0625 2.875 C-0.15206079 3.82823451 -0.15206079 3.82823451 -1 6 C-1.99 5.01 -2.98 4.02 -4 3 C-2.68 2.01 -1.36 1.02 0 0 Z " fill="#EFEFEF" transform="translate(564,426)"/>
<path d="M0 0 C1.11375 0.3403125 1.11375 0.3403125 2.25 0.6875 C0.6 2.0075 -1.05 3.3275 -2.75 4.6875 C-4.07 4.0275 -5.39 3.3675 -6.75 2.6875 C-4.29511132 0.41445492 -3.41240272 -0.38777304 0 0 Z " fill="#101010" transform="translate(605.75,281.3125)"/>
<path d="M0 0 C1.11375 0.3403125 1.11375 0.3403125 2.25 0.6875 C0.6 2.0075 -1.05 3.3275 -2.75 4.6875 C-4.07 4.0275 -5.39 3.3675 -6.75 2.6875 C-4.29511132 0.41445492 -3.41240272 -0.38777304 0 0 Z " fill="#101010" transform="translate(829.75,257.3125)"/>
<path d="M0 0 C0 3 0 3 -1.3125 4.38671875 C-2.875 5.59114583 -4.4375 6.79557292 -6 8 C-6.66 7.67 -7.32 7.34 -8 7 C-6.5361389 2.60841671 -4.02168662 2.12052567 0 0 Z " fill="#181818" transform="translate(741,221)"/>
<path d="M0 0 C2.97 0.495 2.97 0.495 6 1 C6.33 2.32 6.66 3.64 7 5 C4 5 4 5 1.8125 3.0625 C0 1 0 1 0 0 Z " fill="#F2F2F2" transform="translate(272,1115)"/>
<path d="M0 0 C0.66 0.33 1.32 0.66 2 1 C4.09821215 0.60061233 4.09821215 0.60061233 6 0 C6.33 0.66 6.66 1.32 7 2 C3.04 3.98 3.04 3.98 -1 6 C-0.67 4.02 -0.34 2.04 0 0 Z " fill="#272727" transform="translate(724,681)"/>
<path d="M0 0 C0.33 1.32 0.66 2.64 1 4 C0.21625 4.12375 -0.5675 4.2475 -1.375 4.375 C-4.14057822 4.79117993 -4.14057822 4.79117993 -6 7 C-6.33 6.01 -6.66 5.02 -7 4 C-4.69 2.68 -2.38 1.36 0 0 Z " fill="#E3E3E3" transform="translate(732,531)"/>
<path d="M0 0 C0.99 0.99 1.98 1.98 3 3 C1.1875 4.5625 1.1875 4.5625 -1 6 C-1.99 5.67 -2.98 5.34 -4 5 C-2.25 1.125 -2.25 1.125 0 0 Z " fill="#F0F0F0" transform="translate(838,482)"/>
<path d="M0 0 C-1 3 -1 3 -3 5 C-6.125 5.125 -6.125 5.125 -9 5 C-2.40909091 0 -2.40909091 0 0 0 Z " fill="#E6E6E6" transform="translate(836,472)"/>
<path d="M0 0 C1.65 1.65 3.3 3.3 5 5 C3.68 5 2.36 5 1 5 C0.67 5.66 0.34 6.32 0 7 C-1.125 2.25 -1.125 2.25 0 0 Z " fill="#E2E2E2" transform="translate(258,389)"/>
<path d="M0 0 C0.99 0.99 1.98 1.98 3 3 C-0.465 4.485 -0.465 4.485 -4 6 C-4.33 5.01 -4.66 4.02 -5 3 C-3.35 2.01 -1.7 1.02 0 0 Z " fill="#131313" transform="translate(411,297)"/>
<path d="M0 0 C0.66 0.33 1.32 0.66 2 1 C-0.25 3.5625 -0.25 3.5625 -3 6 C-5.3125 5.8125 -5.3125 5.8125 -7 5 C-2.25 1.125 -2.25 1.125 0 0 Z " fill="#191919" transform="translate(948,207)"/>
<path d="M0 0 C0.66 0.66 1.32 1.32 2 2 C1.8125 4.0625 1.8125 4.0625 1 6 C0.01 6.33 -0.98 6.66 -2 7 C-2.6875 5.1875 -2.6875 5.1875 -3 3 C-1.5625 1.25 -1.5625 1.25 0 0 Z " fill="#0E0E0E" transform="translate(781,176)"/>
<path d="M0 0 C-0.25 1.875 -0.25 1.875 -1 4 C-3.0625 5.25 -3.0625 5.25 -5 6 C-5.66 5.01 -6.32 4.02 -7 3 C-2.25 0 -2.25 0 0 0 Z " fill="#121212" transform="translate(724,136)"/>
<path d="M0 0 C0.66 0.33 1.32 0.66 2 1 C-0.85276137 3.93200474 -3.65079784 6.64315404 -7 9 C-5.44499019 5.18315774 -2.96404505 2.80804268 0 0 Z " fill="#DBDBDB" transform="translate(710,915)"/>
<path d="M0 0 C0 0.66 0 1.32 0 2 C-1.95216435 3.95216435 -3.53199953 4.84826645 -6 6 C-6.33 5.01 -6.66 4.02 -7 3 C-2.25 0 -2.25 0 0 0 Z " fill="#E4E4E4" transform="translate(629,377)"/>
<path d="M0 0 C0.66 0.33 1.32 0.66 2 1 C1.01 2.32 0.02 3.64 -1 5 C-0.67 5.66 -0.34 6.32 0 7 C-0.99 7.33 -1.98 7.66 -3 8 C-3.1875 5.125 -3.1875 5.125 -3 2 C-2.01 1.34 -1.02 0.68 0 0 Z " fill="#161616" transform="translate(820,751)"/>
<path d="M0 0 C0.99 0 1.98 0 3 0 C3 1.32 3 2.64 3 4 C2.01 4 1.02 4 0 4 C-0.33 4.66 -0.66 5.32 -1 6 C-1.625 4.125 -1.625 4.125 -2 2 C-1.34 1.34 -0.68 0.68 0 0 Z " fill="#0B0B0B" transform="translate(777,649)"/>
<path d="M0 0 C0.66 1.32 1.32 2.64 2 4 C-0.375 5.5625 -0.375 5.5625 -3 7 C-3.66 6.67 -4.32 6.34 -5 6 C-3.35 4.02 -1.7 2.04 0 0 Z " fill="#DDDDDD" transform="translate(661,576)"/>
<path d="M0 0 C-0.99 0.495 -0.99 0.495 -2 1 C-2.33 1.66 -2.66 2.32 -3 3 C-4.32 3 -5.64 3 -7 3 C-7 2.34 -7 1.68 -7 1 C-3.375 -1.125 -3.375 -1.125 0 0 Z " fill="#F1F1F1" transform="translate(545,427)"/>
<path d="M0 0 C1.32 0 2.64 0 4 0 C4.33 0.99 4.66 1.98 5 3 C3.5625 5.1875 3.5625 5.1875 2 7 C1.34 4.69 0.68 2.38 0 0 Z " fill="#0E0E0E" transform="translate(776,395)"/>
<path d="M0 0 C2 2 2 2 2.125 4.625 C2.08375 5.40875 2.0425 6.1925 2 7 C0.35 5.35 -1.3 3.7 -3 2 C-2.01 1.34 -1.02 0.68 0 0 Z " fill="#101010" transform="translate(267,393)"/>
<path d="M0 0 C0.99 0.33 1.98 0.66 3 1 C3 1.99 3 2.98 3 4 C1.35 4.66 -0.3 5.32 -2 6 C-2.33 5.34 -2.66 4.68 -3 4 C-2.34 4 -1.68 4 -1 4 C-0.67 2.68 -0.34 1.36 0 0 Z " fill="#F2F2F2" transform="translate(675,361)"/>
<path d="M0 0 C0.33 0.99 0.66 1.98 1 3 C0.21625 3.12375 -0.5675 3.2475 -1.375 3.375 C-4.14057822 3.79117993 -4.14057822 3.79117993 -6 6 C-6.33 5.01 -6.66 4.02 -7 3 C-2.25 0 -2.25 0 0 0 Z " fill="#E8E8E8" transform="translate(844,252)"/>
<path d="M0 0 C0.66 0.33 1.32 0.66 2 1 C-0.75 5.875 -0.75 5.875 -3 7 C-3.66 6.34 -4.32 5.68 -5 5 C-4.360625 4.731875 -3.72125 4.46375 -3.0625 4.1875 C-0.66868314 3.11332248 -0.66868314 3.11332248 0 0 Z " fill="#DBDBDB" transform="translate(954,184)"/>
<path d="M0 0 C0.33 1.32 0.66 2.64 1 4 C-0.98 4.33 -2.96 4.66 -5 5 C-5.33 4.34 -5.66 3.68 -6 3 C-4.02 2.01 -2.04 1.02 0 0 Z " fill="#E8E8E8" transform="translate(622,178)"/>
<path d="M0 0 C0.66 0.33 1.32 0.66 2 1 C1.67 1.99 1.34 2.98 1 4 C-0.98 4.33 -2.96 4.66 -5 5 C-5 4.34 -5 3.68 -5 3 C-2.625 1.3125 -2.625 1.3125 0 0 Z " fill="#EDEDED" transform="translate(848,954)"/>
<path d="M0 0 C0.66 0.33 1.32 0.66 2 1 C1.34 2.65 0.68 4.3 0 6 C-1.32 5.34 -2.64 4.68 -4 4 C-2.68 2.68 -1.36 1.36 0 0 Z " fill="#E6E6E6" transform="translate(678,562)"/>
<path d="M0 0 C0.66 0.33 1.32 0.66 2 1 C1.34 2.32 0.68 3.64 0 5 C-1.65 4.67 -3.3 4.34 -5 4 C-3.35 2.68 -1.7 1.36 0 0 Z " fill="#212121" transform="translate(777,521)"/>
<path d="M0 0 C0.66 0.33 1.32 0.66 2 1 C-0.36292656 3.52588702 -1.66462511 4.88820837 -5 6 C-5.66 5.34 -6.32 4.68 -7 4 C-1.7265625 0.77734375 -1.7265625 0.77734375 0 0 Z " fill="#E8E8E8" transform="translate(751,520)"/>
<path d="M0 0 C0.66 0.33 1.32 0.66 2 1 C0.35 2.65 -1.3 4.3 -3 6 C-4.32 5.34 -5.64 4.68 -7 4 C-1.7265625 0.77734375 -1.7265625 0.77734375 0 0 Z " fill="#1E1E1E" transform="translate(600,409)"/>
<path d="M0 0 C0.66 0.66 1.32 1.32 2 2 C-1.465 3.485 -1.465 3.485 -5 5 C-5.33 4.01 -5.66 3.02 -6 2 C-4.02 1.34 -2.04 0.68 0 0 Z " fill="#EAEAEA" transform="translate(623,394)"/>
<path d="M0 0 C2.125 0.9375 2.125 0.9375 4 2 C0.86501708 3.85776765 -1.37471432 4.20140476 -5 4 C-3.36587557 2.29159719 -2.13093906 1.06546953 0 0 Z " fill="#E5E5E5" transform="translate(429,290)"/>
<path d="M0 0 C0 0.99 0 1.98 0 3 C-2 4.6875 -2 4.6875 -4 6 C-4.66 5.01 -5.32 4.02 -6 3 C-4.02 2.01 -2.04 1.02 0 0 Z " fill="#151515" transform="translate(475,280)"/>
<path d="M0 0 C-0.33 1.32 -0.66 2.64 -1 4 C-2.65 4.33 -4.3 4.66 -6 5 C-6.33 4.34 -6.66 3.68 -7 3 C-2.25 0 -2.25 0 0 0 Z " fill="#1A1A1A" transform="translate(724,232)"/>
<path d="M0 0 C-0.33 1.32 -0.66 2.64 -1 4 C-2.65 4.33 -4.3 4.66 -6 5 C-6.33 4.34 -6.66 3.68 -7 3 C-2.25 0 -2.25 0 0 0 Z " fill="#1B1B1B" transform="translate(596,104)"/>
<path d="M0 0 C0.66 0.33 1.32 0.66 2 1 C-0.36292656 3.52588702 -1.66462511 4.88820837 -5 6 C-5.66 5.34 -6.32 4.68 -7 4 C-1.7265625 0.77734375 -1.7265625 0.77734375 0 0 Z " fill="#161616" transform="translate(663,64)"/>
</svg>
